<svg width="165" height="49" viewBox="0 0 165 49" fill="none" xmlns="http://www.w3.org/2000/svg">
<rect width="165" height="49" rx="5" fill="#D23166"/>
<path d="M55.696 29H51.04V18.216H55.232C56.416 18.216 57.3173 18.4987 57.936 19.064C58.5547 19.6187 58.864 20.328 58.864 21.192C58.864 21.7573 58.7147 22.2533 58.416 22.68C58.1173 23.1067 57.728 23.3947 57.248 23.544C58.496 23.9173 59.12 24.76 59.12 26.072C59.12 26.9253 58.8107 27.6293 58.192 28.184C57.584 28.728 56.752 29 55.696 29ZM54.816 20.184H53.504V22.6H54.416C55.056 22.6 55.536 22.4827 55.856 22.248C56.1867 22.0133 56.352 21.704 56.352 21.32C56.352 20.5627 55.84 20.184 54.816 20.184ZM54.816 24.536H53.504V27.032H54.8C56.016 27.032 56.624 26.616 56.624 25.784C56.624 24.952 56.0213 24.536 54.816 24.536ZM68.0075 29H65.6715V27.704C65.2448 28.6107 64.4235 29.064 63.2075 29.064C62.3755 29.064 61.7248 28.8347 61.2555 28.376C60.7968 27.9067 60.5675 27.2187 60.5675 26.312V20.888H62.9035V25.784C62.9035 26.7333 63.3195 27.208 64.1515 27.208C65.1648 27.208 65.6715 26.5307 65.6715 25.176V20.888H68.0075V29ZM74.4728 28.76C73.6301 31.032 72.3448 32.168 70.6168 32.168C70.2861 32.168 69.9874 32.1413 69.7208 32.088V30.232C69.8914 30.2747 70.0728 30.296 70.2648 30.296C71.1501 30.296 71.7901 29.8213 72.1848 28.872L69.0488 20.888H71.5928L72.4728 23.416C72.6968 24.0667 72.8781 24.6267 73.0168 25.096C73.1661 25.5653 73.2568 25.8747 73.2888 26.024L73.3368 26.248C73.4541 25.8213 73.7421 24.8773 74.2008 23.416L75.0008 20.888H77.4008L74.4728 28.76ZM84.9884 29H82.5244V18.216H85.2284L87.7404 22.68C88.0924 23.3093 88.3964 23.9013 88.6524 24.456C88.919 25 89.0897 25.384 89.1644 25.608L89.2924 25.96C89.1857 25.1707 89.1324 24.0773 89.1324 22.68V18.216H91.5964V29H88.8924L86.3164 24.536C85.975 23.96 85.671 23.3947 85.4044 22.84C85.1484 22.2747 84.9724 21.8587 84.8764 21.592L84.7484 21.192C84.9084 22.152 84.9884 23.2667 84.9884 24.536V29ZM101.153 24.904C101.153 26.1307 100.801 27.144 100.097 27.944C99.4033 28.7333 98.4326 29.128 97.1846 29.128C95.9153 29.128 94.934 28.7493 94.2406 27.992C93.5473 27.224 93.2006 26.2427 93.2006 25.048C93.2006 23.8 93.5633 22.776 94.2886 21.976C95.014 21.1653 95.9793 20.76 97.1846 20.76C98.4433 20.76 99.4193 21.1493 100.113 21.928C100.806 22.7067 101.153 23.6987 101.153 24.904ZM96.0166 23.256C95.7606 23.6933 95.6326 24.2587 95.6326 24.952C95.6326 25.6453 95.7606 26.216 96.0166 26.664C96.2833 27.1013 96.678 27.32 97.2006 27.32C97.7126 27.32 98.0913 27.1067 98.3366 26.68C98.5926 26.2427 98.7206 25.6773 98.7206 24.984C98.7206 23.3947 98.2033 22.6 97.1686 22.6C96.6566 22.6 96.2726 22.8187 96.0166 23.256ZM106.807 29H104.407L101.799 20.888H104.215L104.919 23.56C105.089 24.232 105.233 24.84 105.351 25.384C105.468 25.9173 105.537 26.2853 105.559 26.488L105.607 26.792C105.681 26.152 105.943 25.0747 106.391 23.56L107.175 20.888H109.191L109.959 23.56C110.151 24.2427 110.311 24.856 110.439 25.4C110.567 25.9333 110.647 26.3013 110.679 26.504L110.727 26.792C110.801 26.1627 111.052 25.0853 111.479 23.56L112.231 20.888H114.535L111.943 29H109.543L108.839 26.344C108.689 25.768 108.556 25.2293 108.439 24.728C108.332 24.2267 108.263 23.8693 108.231 23.656L108.183 23.336C108.076 24.0507 107.852 25.0533 107.511 26.344L106.807 29Z" fill="#FAFAFA"/>
</svg>
